<?xml version="1.0" standalone="no"?><!DOCTYPE svg PUBLIC "-//W3C//DTD SVG 1.1//EN" "http://www.w3.org/Graphics/SVG/1.1/DTD/svg11.dtd"><svg class="icon" width="32px" height="32.00px" viewBox="0 0 1024 1024" version="1.1" xmlns="http://www.w3.org/2000/svg"><path d="M384 704c17.066667 0 32-14.933333 32-32v-128h128c17.066667 0 32-14.933333 32-32s-14.933333-32-32-32h-128v-128c0-17.066667-14.933333-32-32-32s-32 14.933333-32 32v128h-128c-17.066667 0-32 14.933333-32 32s14.933333 32 32 32h128v128c0 17.066667 14.933333 32 32 32z"  /><path d="M938.666667 53.333333H682.666667c-17.066667 0-32 14.933333-32 32v106.666667h-554.666667C78.933333 192 64 206.933333 64 224v576c0 17.066667 14.933333 32 32 32H640v96c0 17.066667 14.933333 32 32 32h256c17.066667 0 32-14.933333 32-32v-256c0-17.066667-14.933333-32-32-32h-256c-17.066667 0-32 14.933333-32 32V768H128V256h522.666667v85.333333c0 17.066667 14.933333 32 32 32h256c17.066667 0 32-14.933333 32-32V85.333333c0-17.066667-14.933333-32-32-32z m-32 256h-192v-192h192v192z"  /></svg>