<?xml version="1.0" standalone="no"?><!DOCTYPE svg PUBLIC "-//W3C//DTD SVG 1.1//EN" "http://www.w3.org/Graphics/SVG/1.1/DTD/svg11.dtd"><svg class="icon" width="200px" height="200.00px" viewBox="0 0 1024 1024" version="1.1" xmlns="http://www.w3.org/2000/svg"><path d="M566.465078 841.897614m-24-41.56922l-240-415.692193q-24-41.569219 17.569219-65.56922l0 0q41.569219-24 65.56922 17.56922l240 415.692193q24 41.569219-17.56922 65.56922l0 0q-41.569219 24-65.569219-17.56922ZM649.537219 343.292663m-24 41.569219l-240 415.692194q-24 41.569219-65.569219 17.56922l0 0q-41.569219-24-17.569219-65.56922l240-415.692194q24-41.569219 65.569219-17.569219l0 0q41.569219 24 17.569219 65.569219ZM906.88 14.72L1018.88 192a32 32 0 0 1-26.88 49.28h-64a48 48 0 0 0-96 0h-64a32 32 0 0 1-26.24-49.28L853.12 14.72a32 32 0 0 1 53.76 0zM128 112.64h305.28a46.72 46.72 0 1 1 0 93.44H157.44a64 64 0 0 0-64 64v597.12a64 64 0 0 0 64 64H768a64 64 0 0 0 64-64V236.16a48 48 0 0 1 96 0V896a128 128 0 0 1-128 128H128a128 128 0 0 1-128-128V240.64a128 128 0 0 1 128-128z" /></svg>