<?xml version="1.0" standalone="no"?><!DOCTYPE svg PUBLIC "-//W3C//DTD SVG 1.1//EN" "http://www.w3.org/Graphics/SVG/1.1/DTD/svg11.dtd"><svg t="1608532600637" class="icon" viewBox="0 0 1024 1024" version="1.1" xmlns="http://www.w3.org/2000/svg" p-id="5433" width="48" height="48" xmlns:xlink="http://www.w3.org/1999/xlink"><defs><style type="text/css"></style></defs><path d="M690.176 843.776l239.616-358.4c10.24-14.336 6.144-32.768-8.192-43.008-4.096-4.096-10.24-6.144-16.384-6.144H716.8v-225.28c0-16.384-14.336-30.72-30.72-30.72-10.24 0-20.48 6.144-24.576 14.336L421.888 552.96c-10.24 14.336-6.144 32.768 8.192 43.008 4.096 4.096 10.24 6.144 16.384 6.144H634.88v225.28c0 16.384 14.336 30.72 30.72 30.72 10.24 0 20.48-6.144 24.576-14.336z" p-id="5434"></path><path d="M204.8 231.424h204.8c34.816 0 61.44 26.624 61.44 61.44s-26.624 61.44-61.44 61.44H204.8c-34.816 0-61.44-26.624-61.44-61.44s26.624-61.44 61.44-61.44z m0 491.52h204.8c34.816 0 61.44 26.624 61.44 61.44s-26.624 61.44-61.44 61.44H204.8c-34.816 0-61.44-26.624-61.44-61.44s26.624-61.44 61.44-61.44z m-81.92-245.76h163.84c34.816 0 61.44 26.624 61.44 61.44s-26.624 61.44-61.44 61.44H122.88c-34.816 0-61.44-26.624-61.44-61.44s26.624-61.44 61.44-61.44z" opacity=".3" p-id="5435"></path></svg>