<?xml version="1.0" standalone="no"?><!DOCTYPE svg PUBLIC "-//W3C//DTD SVG 1.1//EN" "http://www.w3.org/Graphics/SVG/1.1/DTD/svg11.dtd"><svg t="1547023441823" class="icon" style="" viewBox="0 0 1024 1024" version="1.1" xmlns="http://www.w3.org/2000/svg" p-id="1369" xmlns:xlink="http://www.w3.org/1999/xlink" width="200" height="200"><defs><style type="text/css"></style></defs><path d="M877.625 452.234375H782.703125V352.390625c0-15.55664063-12.56835938-28.125-28.125-28.125H477.72265625L374.62695312 225.65234375c-1.31835938-1.23046875-3.07617188-1.93359375-4.83398437-1.93359375H146.375c-15.55664063 0-28.125 12.56835938-28.125 28.125v520.3125c0 15.55664063 12.56835938 28.125 28.125 28.125h613.4765625c11.42578125 0 21.796875-6.94335938 26.10351563-17.578125l117.77343749-291.796875c1.31835938-3.33984375 2.02148438-6.94335938 2.02148438-10.546875 0-15.55664063-12.56835938-28.125-28.125-28.125zM181.53125 287h165.67382813l105.11718749 100.546875H719.421875V452.234375H271.1796875c-11.42578125 0-21.796875 6.94335938-26.10351563 17.578125L181.53125 627.3125V287z m558.36914063 450H201.74609375l90.79101563-225h538.2421875L739.90039063 737z" p-id="1370"></path></svg>