<?xml version="1.0" standalone="no"?><!DOCTYPE svg PUBLIC "-//W3C//DTD SVG 1.1//EN" "http://www.w3.org/Graphics/SVG/1.1/DTD/svg11.dtd"><svg t="1604374521683" class="icon" viewBox="0 0 1024 1024" version="1.1" xmlns="http://www.w3.org/2000/svg" p-id="2828" xmlns:xlink="http://www.w3.org/1999/xlink" width="200" height="200"><defs><style type="text/css"></style></defs><path d="M418.523429 645.339429l-159.451429-90.697143a32.036571 32.036571 0 0 0-31.744 55.588571l159.451429 90.697143a32.036571 32.036571 0 0 0 31.744-55.588571z" p-id="2829"></path><path d="M790.235429 379.830857a32.036571 32.036571 0 1 0-31.670858-55.661714L508.781714 466.358857 259.072 324.169143a32.036571 32.036571 0 0 0-31.744 55.588571l253.366857 144.237715v308.004571a31.963429 31.963429 0 1 0 64 0V522.678857c0-0.950857-0.438857-1.828571-0.585143-2.852571l246.125715-139.995429z" p-id="2830"></path><path d="M880.274286 232.448L560.274286 45.129143a95.670857 95.670857 0 0 0-96.621715 0L143.652571 232.448A96.621714 96.621714 0 0 0 95.963429 315.977143v397.677714c0 34.742857 18.651429 66.852571 48.786285 83.968l320 181.906286c29.257143 16.676571 65.170286 16.676571 94.500572 0l320-181.906286a96.548571 96.548571 0 0 0 48.786285-83.968V315.904c0-34.304-18.139429-66.048-47.762285-83.382857z m-16.310857 481.133714a32.182857 32.182857 0 0 1-16.237715 28.013715l-320 181.906285a31.744 31.744 0 0 1-31.451428 0L176.274286 741.595429a32.182857 32.182857 0 0 1-16.310857-28.013715V315.904a32.182857 32.182857 0 0 1 15.945142-27.794286l319.853715-187.392a31.817143 31.817143 0 0 1 32.182857 0l320.146286 187.392a32.109714 32.109714 0 0 1 15.872 27.794286v397.677714z" p-id="2831"></path><path d="M778.678857 453.924571L629.321143 542.061714c-20.626286 12.214857-37.302857 38.985143-37.302857 59.830857v176.420572c0 20.845714 16.676571 27.867429 37.302857 15.725714l149.357714-88.137143c20.553143-12.141714 37.302857-38.912 37.302857-59.757714V469.723429c0-20.918857-16.676571-27.940571-37.302857-15.798858z" p-id="2832"></path></svg>