<?xml version="1.0" standalone="no"?><!DOCTYPE svg PUBLIC "-//W3C//DTD SVG 1.1//EN" "http://www.w3.org/Graphics/SVG/1.1/DTD/svg11.dtd"><svg t="1608868341933" class="icon" viewBox="0 0 1283 1024" version="1.1" xmlns="http://www.w3.org/2000/svg" p-id="3117" xmlns:xlink="http://www.w3.org/1999/xlink" width="20.046875" height="16"><defs><style type="text/css"></style></defs><path d="M487.76704 989.866667H89.43104a84.48 84.48 0 0 1-65.024-31.061334 106.24 106.24 0 0 1-23.04-84.736l37.717333-250.538666c7.253333-48.042667 44.288-82.773333 88.064-82.773334h322.901334c43.861333 0 80.896 34.730667 88.064 82.773334l37.717333 250.538666c4.949333 30.208-3.498667 61.098667-23.04 84.736a84.48 84.48 0 0 1-65.024 31.061334zM127.148373 613.034667c-8.021333 0-15.701333 9.386667-17.493333 21.418666l-37.717333 250.538667c-1.621333 9.386667 0.853333 19.114667 6.656 26.624 2.56 3.413333 6.570667 5.546667 10.837333 5.888h398.336a14.762667 14.762667 0 0 0 10.837333-5.888 33.792 33.792 0 0 0 6.656-26.624l-37.717333-250.538667c-1.706667-11.946667-9.386667-21.333333-17.493333-21.333333H127.148373zM1119.233707 989.866667H720.812373a84.48 84.48 0 0 1-64.938666-31.061334 106.24 106.24 0 0 1-23.04-84.736l37.632-250.538666c7.253333-48.042667 44.288-82.773333 88.064-82.773334h322.986666c43.776 0 80.810667 34.730667 88.064 82.773334l37.717334 250.538666c4.864 30.208-3.584 61.098667-23.04 84.736a84.48 84.48 0 0 1-65.024 31.061334zM758.529707 613.12c-7.936 0-15.616 9.386667-17.408 21.333333L703.31904 884.992c-1.706667 9.386667 0.768 19.114667 6.656 26.624 2.56 3.413333 6.485333 5.632 10.752 5.973333h398.421333a14.762667 14.762667 0 0 0 10.752-5.973333 33.792 33.792 0 0 0 6.656-26.624l-37.717333-250.538667c-1.706667-11.946667-9.386667-21.333333-17.408-21.333333H758.529707zM808.79104 476.501333h-401.066667a85.248 85.248 0 0 1-65.365333-31.061333 105.728 105.728 0 0 1-23.210667-84.736l37.973334-250.538667C364.37504 62.122667 401.665707 27.306667 445.612373 27.306667h325.12c44.032 0 81.322667 34.816 88.661334 82.773333l37.888 250.624a105.813333 105.813333 0 0 1-23.210667 84.650667 85.248 85.248 0 0 1-65.365333 31.146666zM445.612373 99.669333c-8.021333 0-15.701333 9.386667-17.578666 21.333334l-37.888 250.538666c-1.706667 9.386667 0.768 19.114667 6.656 26.624 2.56 3.413333 6.570667 5.632 10.922666 5.973334h400.981334a14.848 14.848 0 0 0 10.837333-5.973334 33.621333 33.621333 0 0 0 6.741333-26.624L788.396373 121.173333c-1.792-11.946667-9.557333-21.333333-17.578666-21.333333H445.612373z" p-id="3118"></path></svg>