<?xml version="1.0" standalone="no"?><!DOCTYPE svg PUBLIC "-//W3C//DTD SVG 1.1//EN" "http://www.w3.org/Graphics/SVG/1.1/DTD/svg11.dtd"><svg t="1606274080490" class="icon" viewBox="0 0 1024 1024" version="1.1" xmlns="http://www.w3.org/2000/svg" p-id="1218" xmlns:xlink="http://www.w3.org/1999/xlink" width="200" height="200"><defs><style type="text/css"></style></defs><path d="M608.3 285c-47.4-56.5-126.4-74.5-205.1-54.6-16.9 4.2-33.7 10.2-50.2 17.9l31.8 37.9 63.7 76c7.7 9.2 5.8 23.5-4.1 31.9l-84.2 70.7c-10 8.4-24.4 7.7-32.1-1.5L263.9 387l-31.7-37.8a278.14 278.14 0 0 0-27.7 48.6C171.8 471.6 176 552 223.2 608.3c57.3 68.3 160.7 80.3 254.2 37.2 1.5 2.7 3.2 5.4 5.3 7.9l133.7 159.3c26.1 31.1 72.5 35.2 103.7 9.1l13.6-11.4c31.1-26.1 35.2-72.5 9.1-103.7L609.1 547.3c-2.2-2.6-4.6-4.9-7.2-6.9 57.6-84.4 63.3-187.5 6.4-255.4z m-68.2 258.5c-0.4 0.5-0.8 0.9-1.3 1.4l1.4-1.2 0.6 0.7 0.5-0.4 29.2 34.8L703 736.6c9.8 11.6 8.2 29-3.4 38.7l-8 6.7c-11.6 9.8-29 8.2-38.7-3.4L520.5 621l-29.3-35 0.8-0.6-0.5-0.6-0.2 0.2C412.6 635.1 317 631.1 267 571.4c-29.5-35.2-37.3-82.7-25.7-129.7l64.9 77.4c15 17.9 43.1 19.1 62.6 2.8l128.4-107.7c19.4-16.3 23.1-44.2 8.1-62.1l-65.4-77.9c48.9-3.6 94.8 12.2 124.6 47.7 49.6 59.2 37.5 153.1-24.4 221.6z" p-id="1219"></path></svg>