<?xml version="1.0" standalone="no"?><!DOCTYPE svg PUBLIC "-//W3C//DTD SVG 1.1//EN" "http://www.w3.org/Graphics/SVG/1.1/DTD/svg11.dtd"><svg t="1604476280313" class="icon" viewBox="0 0 1024 1024" version="1.1" xmlns="http://www.w3.org/2000/svg" p-id="2130" xmlns:xlink="http://www.w3.org/1999/xlink" width="200" height="200"><defs><style type="text/css"></style></defs><path d="M946.920727 190.557091H738.862545v-75.682909C738.955636 52.503273 687.941818 1.489455 625.570909 1.489455H398.429091c-62.370909 0-113.384727 51.013818-113.384727 113.384727v75.682909H77.079273a37.888 37.888 0 0 0-37.794909 37.794909c0 20.852364 17.035636 37.794909 37.794909 37.794909h56.785454v605.090909a151.738182 151.738182 0 0 0 151.272728 151.272727h453.72509A151.738182 151.738182 0 0 0 890.228364 871.330909v-605.090909h56.785454a37.888 37.888 0 0 0 37.794909-37.794909 37.888 37.888 0 0 0-37.794909-37.794909z m-586.193454-75.682909c0-20.759273 17.035636-37.794909 37.794909-37.794909H625.570909c20.759273 0 37.794909 17.035636 37.794909 37.794909v75.682909h-302.545454v-75.682909zM814.545455 871.330909a75.869091 75.869091 0 0 1-75.68291 75.682909H285.137455a75.869091 75.869091 0 0 1-75.589819-75.682909v-605.090909h605.090909v605.090909zM398.522182 417.419636a37.888 37.888 0 0 0-37.794909 37.888v302.545455c0 20.759273 17.035636 37.794909 37.794909 37.794909a37.888 37.888 0 0 0 37.888-37.794909V455.214545a37.888 37.888 0 0 0-37.888-37.888z m226.955636 0a37.888 37.888 0 0 0-37.888 37.888v302.545455a37.888 37.888 0 0 0 75.682909 0V455.214545a37.888 37.888 0 0 0-37.794909-37.888z" p-id="2131"></path></svg>