<?xml version="1.0" standalone="no"?><!DOCTYPE svg PUBLIC "-//W3C//DTD SVG 1.1//EN" "http://www.w3.org/Graphics/SVG/1.1/DTD/svg11.dtd"><svg t="1604374530635" class="icon" viewBox="0 0 1024 1024" version="1.1" xmlns="http://www.w3.org/2000/svg" p-id="3081" xmlns:xlink="http://www.w3.org/1999/xlink" width="200" height="200"><defs><style type="text/css"></style></defs><path d="M1016.100571 430.299429l-4.242285-26.916572-82.212572-27.501714a434.468571 434.468571 0 0 0-26.843428-64.658286l38.838857-77.531428-15.872-22.162286a524.141714 524.141714 0 0 0-114.834286-114.468572l-22.089143-15.945142-77.531428 38.765714a439.661714 439.661714 0 0 0-64.731429-26.770286L619.227429 11.117714 592.603429 6.948571A507.684571 507.684571 0 0 0 511.561143 0c-24.868571 0-50.688 2.194286-81.115429 7.094857l-26.916571 4.242286-27.355429 82.358857c-22.674286 7.314286-44.397714 16.384-64.731428 26.624l-77.531429-38.912-21.942857 15.945143A514.048 514.048 0 0 0 97.28 211.894857l-15.945143 22.235429 38.765714 77.458285c-10.459429 20.772571-19.456 42.422857-26.624 64.658286l-82.212571 27.062857-4.388571 27.062857C2.56 457.142857 0.219429 484.205714 0 511.488c0 25.088 2.194286 51.492571 6.948571 81.042286l4.315429 26.916571 82.212571 27.428572c7.168 22.235429 16.091429 44.032 26.770286 64.731428l-38.546286 77.238857 15.945143 21.942857a497.371429 497.371429 0 0 0 52.370286 62.171429c17.408 17.554286 37.595429 34.669714 62.025143 52.516571l22.089143 15.872 77.458285-38.765714c20.845714 10.678857 42.422857 19.748571 64.658286 26.843429l27.428572 82.285714 26.843428 4.242286c29.549714 4.681143 56.027429 6.948571 81.042286 6.948571 25.014857 0 51.419429-2.194286 81.188571-6.948571l26.843429-4.242286 27.355428-82.285714c21.942857-7.168 43.666286-16.164571 64.585143-26.697143l77.531429 38.765714 22.089143-15.872a479.378286 479.378286 0 0 0 114.468571-114.614857l15.872-22.308571-38.765714-77.385143c10.678857-20.772571 19.602286-42.422857 26.843428-64.804572l82.139429-27.428571 4.242286-26.916572c4.754286-29.549714 7.021714-55.954286 7.021714-80.969142a454.436571 454.436571 0 0 0-6.875429-80.969143z m-73.508571 80.310857v0.512c0 15.213714-0.950857 30.573714-2.925714 47.030857l-39.643429 13.238857-35.108571 11.849143-10.971429 35.401143c-6.144 20.48-14.262857 40.228571-24.283428 59.099428l-17.261715 32.621715 35.254857 70.217142c-10.313143 13.019429-20.48 24.649143-31.232 35.254858l-0.219428 0.219428c-10.459429 10.605714-21.942857 20.772571-34.962286 31.012572l-70.217143-35.108572-32.475428 16.822857c-19.163429 10.093714-39.350857 18.285714-59.977143 24.868572l-35.035429 10.971428-11.410285 34.816-13.238858 39.643429a381.586286 381.586286 0 0 1-93.988571 0l-13.238857-39.643429-11.556572-35.108571-35.328-10.971429a337.042286 337.042286 0 0 1-59.172571-24.283428l-32.694857-17.042286-33.133714 16.530286-37.302858 18.651428a398.555429 398.555429 0 0 1-66.413714-66.413714l34.962286-70.217143-17.115429-32.402286a344.722286 344.722286 0 0 1-24.502857-59.465142l-10.971428-35.328-74.605715-24.868572a381.220571 381.220571 0 0 1 0-93.915428l74.532572-24.795429 10.825143-35.181714c6.290286-20.260571 14.628571-40.374857 24.502857-59.684572l17.115428-32.475428-16.384-32.914286-18.578285-37.302857c19.529143-24.502857 41.910857-46.738286 66.413714-66.413714l70.144 35.108571 32.621714-17.188571c18.870857-9.801143 38.985143-18.139429 59.757714-24.649143l35.108572-10.971429 11.629714-34.889143 13.165714-39.716571a421.302857 421.302857 0 0 1 46.957715-2.925714c15.067429 0 30.573714 1.024 46.957714 2.925714l24.868571 74.386286 35.108572 10.898285c20.48 6.363429 40.448 14.628571 59.684571 24.502857l32.548572 17.042286 70.144-35.108571c24.356571 19.602286 46.811429 41.984 66.706285 66.56l-35.035428 70.144 16.822857 32.329143c10.020571 19.309714 18.432 39.497143 24.868571 59.977142l10.971429 35.108572 34.816 11.702857 39.716571 13.165714c2.194286 16.822857 2.998857 31.963429 2.779429 46.372572z m-430.811429-194.56a195.730286 195.730286 0 0 0-195.510857 195.437714 195.730286 195.730286 0 0 0 195.510857 195.510857A195.657143 195.657143 0 0 0 707.291429 511.488a195.657143 195.657143 0 0 0-195.510858-195.437714z m81.188572 276.553143c-21.796571 21.650286-50.541714 33.645714-81.188572 33.645714-30.72 0-59.465143-11.922286-81.115428-33.645714a114.029714 114.029714 0 0 1-33.645714-81.115429c0-30.573714 11.922286-59.392 33.645714-81.115429 21.650286-21.577143 50.468571-33.645714 81.188571-33.645714 30.573714 0 59.318857 11.995429 81.042286 33.645714a114.176 114.176 0 0 1 0 162.230858z" p-id="3082"></path></svg>