<?xml version="1.0" standalone="no"?><!DOCTYPE svg PUBLIC "-//W3C//DTD SVG 1.1//EN" "http://www.w3.org/Graphics/SVG/1.1/DTD/svg11.dtd"><svg t="1611898668988" class="icon" viewBox="0 0 1024 1024" version="1.1" xmlns="http://www.w3.org/2000/svg" p-id="3352" xmlns:xlink="http://www.w3.org/1999/xlink" width="64" height="64"><defs><style type="text/css"></style></defs><path d="M245.76 104.96c-75.776 21.504-129.536 80.896-144.384 160.256-15.36 81.92 30.208 168.96 107.52 206.848l33.792 16.896 101.376 1.536c149.504 2.56 147.456 4.096 147.456-139.264 0-83.456-1.024-98.304-10.752-123.392-19.456-52.224-67.584-100.864-117.248-117.76-34.304-12.288-84.992-14.336-117.76-5.12zM680.96 103.936c-59.904 17.408-103.424 52.736-129.024 104.96l-16.896 33.792-1.536 101.376c-2.56 149.504-4.096 147.456 139.264 147.456 83.456 0 98.304-1.024 123.392-10.752 79.36-29.696 128.512-101.376 127.488-186.368-0.512-64.512-26.624-116.736-76.8-155.648-44.032-33.792-116.736-49.152-165.888-34.816zM223.232 545.28c-78.336 32.256-123.904 100.352-122.88 184.32 1.024 110.592 83.456 193.024 194.048 194.048 84.992 1.024 156.672-48.128 186.368-127.488 9.728-25.088 10.752-39.936 10.752-123.392 0-141.824 1.536-140.288-141.824-140.288-90.112 0-98.304 1.024-126.464 12.8zM560.128 542.208c-26.112 15.872-28.672 29.184-26.624 139.264l1.536 99.84 16.896 33.792c37.888 77.312 124.928 122.88 206.848 107.52 86.016-15.872 147.968-77.824 163.84-163.84 15.36-81.92-30.208-168.96-107.52-206.848l-33.792-16.896-102.912-1.536c-93.184-1.024-103.936-0.512-118.272 8.704z" p-id="3353" ></path></svg>