<?xml version="1.0" standalone="no"?><!DOCTYPE svg PUBLIC "-//W3C//DTD SVG 1.1//EN" "http://www.w3.org/Graphics/SVG/1.1/DTD/svg11.dtd"><svg t="1608531322684" class="icon" viewBox="0 0 1024 1024" version="1.1" xmlns="http://www.w3.org/2000/svg" p-id="4623" width="48" height="48" xmlns:xlink="http://www.w3.org/1999/xlink"><defs><style type="text/css"></style></defs><path d="M436.053333 540.444444l-56.604444 277.048889c-5.973333 29.070222 31.118222 46.648889 49.891555 23.608889l335.303112-411.648a28.444444 28.444444 0 0 0-22.016-46.421333H535.495111l15.075556-178.631111c2.446222-28.842667-34.759111-42.439111-51.541334-18.887111l-220.387555 310.044444a28.444444 28.444444 0 0 0 23.153778 44.885333h134.257777z m49.095111-237.226666L476.16 409.144889a28.444444 28.444444 0 0 0 28.330667 30.833778h178.232889l-224.426667 275.512889 40.391111-197.745778a28.444444 28.444444 0 0 0-27.875556-34.133334H356.977778l128.227555-180.337777z" p-id="4624"></path></svg>