<?xml version="1.0" standalone="no"?><!DOCTYPE svg PUBLIC "-//W3C//DTD SVG 1.1//EN" "http://www.w3.org/Graphics/SVG/1.1/DTD/svg11.dtd"><svg t="1546506819978" class="icon" style="" viewBox="0 0 1027 1024" version="1.1" xmlns="http://www.w3.org/2000/svg" p-id="1279" xmlns:xlink="http://www.w3.org/1999/xlink" width="200.5859375" height="200"><defs><style type="text/css"></style></defs><path d="M903.48380279 502.80753326H410.72123718c-14.9087906 0-27.03666687 12.12787628-27.03666687 27.03666688V626.32647705H277.08285523V379.75207519h330.46531677c24.71923828 0 44.80361938-20.0843811 44.80361938-44.80361938V161.29580688c0-24.71923828-20.00713349-44.80361938-44.80361938-44.80361938H181.29580688C156.5765686 116.4921875 136.4921875 136.5765686 136.4921875 161.29580688v173.65264893c0 24.71923828 20.0843811 44.80361938 44.80361938 44.80361939h41.7137146V648.72828674c0 10.27393342 5.71632385 19.15740967 14.05906677 23.71501923 4.86660004 4.86660004 11.66439057 7.95650482 19.15740967 7.95650482h127.45857239v112.70427705c0 14.9087906 12.12787628 27.03666687 27.03666687 27.03666686h174.57962036c14.9087906 0 27.03666687-12.12787628 27.03666688-27.03666687s-12.12787628-27.03666687-27.03666688-27.03666687H437.75790405V556.88086701h438.68923188V588.47514343c0 14.9087906 12.12787628 27.03666687 27.03666685 27.03666688s27.03666687-12.12787628 27.03666688-27.03666688v-58.6309433c0-14.9087906-12.12787628-27.03666687-27.03666688-27.03666686zM190.56552124 170.56552124h407.71293639v155.11322022H190.56552124V170.56552124z" p-id="1280"></path><path d="M900.47114562 757.64743042h-68.75038146v-68.75038147c0-14.9087906-12.12787628-27.03666687-27.03666687-27.03666687s-27.03666687 12.12787628-27.03666687 27.03666687v68.75038147h-68.75038147c-14.9087906 0-27.03666687 12.12787628-27.03666687 27.03666687s12.12787628 27.03666687 27.03666687 27.03666687h68.75038147v68.75038147c0 14.9087906 12.12787628 27.03666687 27.03666687 27.03666687s27.03666687-12.12787628 27.03666687-27.03666687v-68.75038147h68.75038146c14.9087906 0 27.03666687-12.12787628 27.03666688-27.03666687s-12.12787628-27.03666687-27.03666688-27.03666687z" p-id="1281"></path></svg>