<?xml version="1.0" standalone="no"?><!DOCTYPE svg PUBLIC "-//W3C//DTD SVG 1.1//EN" "http://www.w3.org/Graphics/SVG/1.1/DTD/svg11.dtd"><svg t="1546506841017" class="icon" style="" viewBox="0 0 1024 1024" version="1.1" xmlns="http://www.w3.org/2000/svg" p-id="1410" xmlns:xlink="http://www.w3.org/1999/xlink" width="200" height="200"><defs><style type="text/css"></style></defs><path d="M879.5 512h-52.5c-4.125 0-7.5 3.375-7.5 7.5v300H204.5V204.5h300c4.125 0 7.5-3.375 7.5-7.5v-52.5c0-4.125-3.375-7.5-7.5-7.5H167c-16.59375 0-30 13.40625-30 30v690c0 16.59375 13.40625 30 30 30h690c16.59375 0 30-13.40625 30-30V519.5c0-4.125-3.375-7.5-7.5-7.5z" p-id="1411"></path><path d="M365.65625 533.46875L363.875 644.9375c-0.09375 8.34375 6.65625 15.1875 15 15.1875h0.375l110.625-2.71875c1.875-0.09375 3.75-0.84375 5.0625-2.15625l389.90625-389.0625c2.90625-2.90625 2.90625-7.6875 0-10.59375L768.3125 139.15625c-1.5-1.5-3.375-2.15625-5.34375-2.15625s-3.84375 0.75-5.34375 2.15625l-389.8125 389.0625c-1.3125 1.40625-2.15625 3.28125-2.15625 5.25z m59.53125 22.125L762.96875 218.5625l42.375 42.28125-337.96875 337.21875-42.84375 1.03125 0.65625-43.5z" p-id="1412"></path></svg>