<?xml version="1.0" standalone="no"?><!DOCTYPE svg PUBLIC "-//W3C//DTD SVG 1.1//EN" "http://www.w3.org/Graphics/SVG/1.1/DTD/svg11.dtd"><svg t="1556613665881" class="icon" style="" viewBox="0 0 1024 1024" version="1.1" xmlns="http://www.w3.org/2000/svg" p-id="6510" xmlns:xlink="http://www.w3.org/1999/xlink" width="200" height="200"><defs><style type="text/css"></style></defs><path d="M973.65061141 515.61905573l-459.52550951-429.65492527-459.52550952 428.39296875c-8.98960598 8.38063858-9.49127038 22.47584919-1.08953804 31.45628397 8.39256114 8.97401495 22.50427989 9.48118206 31.48746604 1.08128396l429.09364809-400.00536685 429.11290761 401.22330164c4.30495924 4.02248641 9.77007473 6.01080163 15.22510191 6.01080162 5.93834919 0 11.87944973-2.35883152 16.261447-7.05264945 8.4090693-8.97401495 7.94684104-23.05546875-1.04184782-31.44986413v0zM973.65061141 515.61905573z" p-id="6511"></path><path d="M833.42578125 524.44358019c-12.29949049 0-22.27683424 9.97184104-22.27683424 22.25574048v341.25560462h-178.22476223v-237.39456521h-237.62934783v237.39456521h-178.21742527v-341.25560461c0-12.28389945-9.96725544-22.25574049-22.27591712-22.25574049-12.31599864 0-22.28141983 9.97184104-22.28141984 22.25574048v385.76525136h267.33393343v-237.3936481h148.51834239v237.3936481h267.32751358v-385.76525135c0.00091712-12.28389945-9.97917799-22.25574049-22.27316575-22.25574049v0zM833.42578125 524.44358019z" p-id="6512"></path><path d="M677.48335597 205.44646741h133.66467392v118.69453125c0 12.30224185 9.97917799 22.26032609 22.27683423 22.26032609 12.29582201 0 22.27408288-9.95808424 22.27408289-22.26032609v-163.20417798h-178.21650815c-12.30224185 0-22.28141983 9.95258152-22.28141984 22.25574048-0.00091712 12.29857337 9.97917799 22.25574049 22.28141984 22.25574049v0zM677.48335597 205.44646741z" p-id="6513"></path></svg>