<?xml version="1.0" standalone="no"?><!DOCTYPE svg PUBLIC "-//W3C//DTD SVG 1.1//EN" "http://www.w3.org/Graphics/SVG/1.1/DTD/svg11.dtd"><svg t="1557022109433" class="icon" style="" viewBox="0 0 1024 1024" version="1.1" xmlns="http://www.w3.org/2000/svg" p-id="3215" xmlns:xlink="http://www.w3.org/1999/xlink" width="200" height="200"><defs><style type="text/css"></style></defs><path d="M670 598.8H294.7c-13.7 0-24.8 11.6-24.8 25.8 0 14.2 11.1 25.8 24.8 25.8H670c13.7 0 24.8-11.6 24.8-25.8 0.1-14.2-11.1-25.8-24.8-25.8z m116.6-215.4c-13.7 0-24.8 11.6-24.8 25.8v498.4c-0.9 0.3-2.6 0.6-5.6 0.6H210.4c-4.2 0-7.4-2.9-7.4-6.9V189.2c0-4.5 1-8.4 1.8-9.9h361.7c13.7 0 24.8-11.6 24.8-25.8 0-14.2-11.1-25.8-24.8-25.8H204c-29.4 0-50.8 25.9-50.8 61.5v712.2c0 32.3 25.6 58.6 57.1 58.6h545.8c33 0 55.2-21.2 55.2-52.7v-498c0.1-14.3-11.1-25.9-24.7-25.9zM670 746.8H294.7c-13.7 0-24.8 11.6-24.8 25.8 0 14.2 11.1 25.9 24.8 25.9H670c13.7 0 24.8-11.7 24.8-25.9 0.1-14.2-11.1-25.8-24.8-25.8z m198.8-592.6c-3.7-14.5-12.5-28.5-24.2-38.3l-42.5-35.4C789.6 70 773.8 64 758.5 64c-16.4 0-30.6 6.9-40.2 19.1l-19.1 24.6c-6.1 8-7.7 17.7-5 27.2L583.6 278l-2.4 3.1-22.1 85.9c-9.4 31.1 4.4 48.4 13.4 56 6.6 5.5 14.1 8.8 22.2 9.9 1 0.3 2 0.4 3.3 0.6 1 0.1 2 0.2 3 0.2h0.1c4.4 0 9.7-1 16.6-3.2l2.9-1.1 80.8-42.2 116-150.2c0.4 0.1 0.8 0.1 1.2 0.1 8.9 0 16.9-3.9 22.3-11l19-24.6c10.1-12.9 13.3-29.8 8.9-47.3zM670 347.1l-55 28.8c-2.8 0.6-5.5 1.7-8 3.4-0.3 0.2-0.5 0.4-0.8 0.5 0.1-0.4 0.2-0.6 0.4-1 1-2.5 1.5-5.1 1.7-7.7l17.2-66.6L727.9 172l47.2 39.4L670 347.1z m152-177l-7.4 9.6-66.1-55.2 7.5-9.6c0.3-0.2 1.1-0.4 2.5-0.4 4.2 0 9.4 2 13.2 5.2l42.5 35.5c3.4 2.9 6.2 7 7.4 11 0.5 2.1 0.5 3.5 0.4 3.9zM488.8 289.2H294.7c-13.7 0-24.8 11.6-24.8 25.8 0 14.2 11.1 25.8 24.8 25.8h194.1c13.7 0 24.8-11.6 24.8-25.8 0.1-14.2-11.1-25.8-24.8-25.8zM670 437.3H294.7c-13.7 0-24.8 11.6-24.8 25.8s11.1 25.8 24.8 25.8H670c13.7 0 24.8-11.6 24.8-25.8s-11.1-25.8-24.8-25.8z" p-id="3216"></path></svg>