<?xml version="1.0" standalone="no"?><!DOCTYPE svg PUBLIC "-//W3C//DTD SVG 1.1//EN" "http://www.w3.org/Graphics/SVG/1.1/DTD/svg11.dtd"><svg t="1546506796304" class="icon" style="" viewBox="0 0 1024 1024" version="1.1" xmlns="http://www.w3.org/2000/svg" p-id="1147" xmlns:xlink="http://www.w3.org/1999/xlink" width="200" height="200"><defs><style type="text/css"></style></defs><path d="M295.36711111 690.28977778h-79.98577778c-37.09155555 0-67.35644445-30.26488889-67.35644444-67.35644445v-449.42222222c0-37.09155555 30.26488889-67.35644445 67.35644444-67.35644444h359.424c37.09155555 0 67.35644445 30.26488889 67.35644445 67.35644444v84.30933334c0 12.40177778-10.01244445 22.41422222-22.41422223 22.41422222-12.40177778 0-22.41422222-10.01244445-22.41422222-22.41422222v-84.30933334c0-12.40177778-10.12622222-22.41422222-22.41422222-22.41422222h-359.53777778c-12.40177778 0-22.41422222 10.12622222-22.41422222 22.41422222v449.30844444c0 12.40177778 10.12622222 22.41422222 22.41422222 22.41422223h79.98577778c12.40177778 0 22.41422222 10.01244445 22.41422222 22.41422222 0.11377778 12.51555555-10.01244445 22.64177778-22.41422222 22.64177778z m0 0" fill="" p-id="1148"></path><path d="M808.27733333 321.536h-359.53777778c-37.09155555 0-67.35644445 30.26488889-67.35644444 67.35644445v449.42222222c0 37.09155555 30.26488889 67.35644445 67.35644444 67.35644444h359.424c37.09155555 0 67.35644445-30.26488889 67.35644445-67.35644444V388.77866667c0.11377778-37.09155555-30.15111111-67.24266667-67.24266667-67.24266667z m22.41422222 516.66488889c0 12.40177778-10.12622222 22.41422222-22.41422222 22.41422222h-359.53777778c-12.40177778 0-22.41422222-10.12622222-22.41422222-22.41422222V388.89244445c0-12.40177778 10.12622222-22.41422222 22.41422222-22.41422223h359.424c12.40177778 0 22.41422222 10.12622222 22.41422223 22.41422223v449.30844444zM441.11644445 279.21066667H254.06577778c-13.76711111 0-24.91733333-11.15022222-24.91733333-24.91733334 0-13.76711111 11.15022222-24.91733333 24.91733333-24.91733333h187.16444444c13.76711111 0 24.91733333 11.15022222 24.91733333 24.91733333-0.11377778 13.76711111-11.264 24.91733333-25.0311111 24.91733334z m0 0M328.704 428.60088889h-74.63822222c-13.76711111 0-24.91733333-11.15022222-24.91733333-24.91733334s11.15022222-24.91733333 24.91733333-24.91733333h74.63822222c13.76711111 0 24.91733333 11.15022222 24.91733333 24.91733333s-11.15022222 24.91733333-24.91733333 24.91733334z m0 0M291.38488889 577.99111111h-37.31911111c-13.76711111 0-24.91733333-11.15022222-24.91733333-24.91733333 0-13.76711111 11.15022222-24.91733333 24.91733333-24.91733333h37.31911111c13.76711111 0 24.91733333 11.15022222 24.91733333 24.91733333 0 13.76711111-11.15022222 24.91733333-24.91733333 24.91733333z m0 0" fill="" p-id="1149"></path><path d="M753.77777778 639.43111111h-99.44177778v102.96888889c0 8.41955555-6.82666667 15.36-15.36 15.36h-21.04888889c-8.41955555 0-15.36-6.82666667-15.36-15.36V639.43111111h-99.44177778c-4.096 0-7.96444445-1.59288889-10.80888888-4.55111111-2.84444445-2.84444445-4.43733333-6.82666667-4.43733334-10.80888889V603.02222222c0-8.41955555 6.82666667-15.36 15.36-15.36h99.44177778V484.69333333c0-8.41955555 6.82666667-15.36 15.36-15.36h21.04888889c8.41955555 0 15.36 6.82666667 15.36 15.36v102.96888889h99.44177777c4.096 0 7.96444445 1.59288889 10.8088889 4.43733333s4.43733333 6.82666667 4.5511111 10.8088889v21.04888888c0 4.096-1.59288889 7.96444445-4.5511111 10.80888889-2.95822222 3.072-6.82666667 4.66488889-10.92266667 4.66488889z" fill="" p-id="1150"></path></svg>