<?xml version="1.0" standalone="no"?><!DOCTYPE svg PUBLIC "-//W3C//DTD SVG 1.1//EN" "http://www.w3.org/Graphics/SVG/1.1/DTD/svg11.dtd"><svg t="1546506879441" class="icon" style="" viewBox="0 0 1024 1024" version="1.1" xmlns="http://www.w3.org/2000/svg" p-id="1802" xmlns:xlink="http://www.w3.org/1999/xlink" width="200" height="200"><defs><style type="text/css"></style></defs><path d="M869.46875 306.96875L717.03125 154.53125c-7.03125-7.03125-15.65625-12.1875-25.03125-15V137H167c-16.59375 0-30 13.40625-30 30v690c0 16.59375 13.40625 30 30 30h690c16.59375 0 30-13.40625 30-30V349.34375c0-15.9375-6.28125-31.125-17.53125-42.375zM392 204.5h240v97.5H392V204.5z m427.5 615H204.5V204.5h127.5v127.5c0 16.59375 13.40625 30 30 30h300c16.59375 0 30-13.40625 30-30V224.9375l127.5 127.5V819.5z" p-id="1803"></path><path d="M512 446.375c-74.53125 0-135 60.46875-135 135s60.46875 135 135 135 135-60.46875 135-135-60.46875-135-135-135z m0 210c-41.4375 0-75-33.5625-75-75s33.5625-75 75-75 75 33.5625 75 75-33.5625 75-75 75z" p-id="1804"></path></svg>