<?xml version="1.0" standalone="no"?><!DOCTYPE svg PUBLIC "-//W3C//DTD SVG 1.1//EN" "http://www.w3.org/Graphics/SVG/1.1/DTD/svg11.dtd"><svg t="1546506901129" class="icon" style="" viewBox="0 0 1024 1024" version="1.1" xmlns="http://www.w3.org/2000/svg" p-id="2204" xmlns:xlink="http://www.w3.org/1999/xlink" width="200" height="200"><defs><style type="text/css"></style></defs><path d="M512 118.25C294.55859375 118.25 118.25 294.55859375 118.25 512s176.30859375 393.75 393.75 393.75 393.75-176.30859375 393.75-393.75S729.44140625 118.25 512 118.25z m0 720.703125c-180.52734375 0-326.953125-146.42578125-326.953125-326.953125 0-78.22265625 27.50976563-150.1171875 73.38867188-206.3671875l459.93164062 459.93164063C662.1171875 811.44335938 590.22265625 838.953125 512 838.953125z m253.56445313-120.5859375L305.6328125 258.43554687C361.8828125 212.55664062 433.77734375 185.046875 512 185.046875c180.52734375 0 326.953125 146.42578125 326.953125 326.953125 0 78.22265625-27.50976563 150.1171875-73.38867188 206.3671875z" p-id="2205"></path></svg>