<?xml version="1.0" standalone="no"?><!DOCTYPE svg PUBLIC "-//W3C//DTD SVG 1.1//EN" "http://www.w3.org/Graphics/SVG/1.1/DTD/svg11.dtd"><svg t="1560246521793" class="icon" style="" viewBox="0 0 1024 1024" version="1.1" xmlns="http://www.w3.org/2000/svg" p-id="1409" xmlns:xlink="http://www.w3.org/1999/xlink" width="200" height="200"><defs><style type="text/css"></style></defs><path d="M299.58501769 263.34350081l-0.00963398 0 0-0.01037484L299.58501769 263.34350081l93.02784786-0.40314494c13.76249795 0.36831398 26.52306363-9.89112414 28.60103665-27.379746L421.21390293 216.67061576c-0.3438586-14.84891355-11.70972116-27.11592341-25.46184427-27.4449606l-177.65339126 1.1308798c-0.26901001-0.02964281-0.43871603-0.13487578-0.67734237-0.1348758l-12.45153729-0.29865281c-6.87569112-0.17934-13.04439709 2.72048519-17.44415765 7.52413155-4.45460033 4.77326198-6.10423219 11.44071115-5.92415133 18.89444066l1.33541678 13.44309473c0 0.26901001-0.92708441 0.44390344-0.92708441 0.74255699l0.69290462 192.23774137c0.29865282 14.81334247 11.67489092 23.70772102 25.46703243 24.03675821l18.50537626 0c13.76249795 0.32903721 24.68964447-12.57159096 24.38061683-27.36492459l-0.77738722-104.55230074 122.49964817 129.78441251c13.30896052 14.37017914 34.85422519 14.37017914 48.1728197 0 13.2741303-14.36499173 13.2741303-37.58434436 0-51.96489906L299.58501769 263.34350081z" p-id="1410"></path><path d="M827.9623859 792.91251687c-0.02519625-0.33348377 0.89670075-0.52319861 0.89670075-0.77738721l-0.01037483-0.00518742-0.70772605-189.27788897c-0.34904602-14.80370848-11.71935514-23.66325608-25.48185381-23.99155242l-17.49899669-0.02519625c-13.71210547-0.33867118-24.68445706 12.59085892-24.33541104 27.41012964l0.77738722 102.29498699L639.1224721 577.91414846c-13.32896934-14.37536729-34.83866293-14.37536729-48.15799829 0-13.29858569 14.36499173-13.29858569 37.58434436 0 51.95007766l122.46481721 130.53660277-92.91224076 0.39869838c-13.75212311-0.32903721-26.48823267 8.77432417-28.60103664 26.268875l0 18.88925325c0.34904602 14.84298528 11.75937351 27.11592341 25.47666566 27.48423742l175.37162211-1.14570121c0.28383142 0 0.44316261 0.1193128 0.70253861 0.1193128l12.43671588 0.32903721c6.87643198 0.17415259 13.07478074-2.7256726 17.46416646-7.54414037 4.49906455-4.72879777 6.08866993-11.4155149 5.954535-18.87443185L827.9623859 792.91251687z" p-id="1411"></path><path d="M420.91450853 577.90896031l-0.01037484 0c-13.29858569-14.37462571-34.86385918-14.37462571-48.16318571 0L250.24722882 707.6881854l0.78702119-102.9226777c0.29939439-14.84298528-10.62775214-27.7836318-24.34059846-27.41012966l-18.52093926 0c-13.7973289 0.36905485-25.16245059 9.18784394-25.47147824 24.03157007l-0.71736002 190.69778835c0 0.26901001 0.93153097 0.44390344 0.93153099 0.74255697l-1.33541679 13.41345193c-0.1496972 7.45891694 1.45472959 14.15082149 5.91451735 18.87443184 4.39457314 4.81846777 10.59810933 7.71829296 17.42933552 7.54339952l12.46191213-0.3290372c0.25937603 0 0.41870721-0.1193128 0.70253861-0.11931281l177.63856985 1.15088936c13.75212311-0.37868884 25.13799521-12.64125214 25.47147826-27.48942483l0-18.88480668c-2.07278561-17.49455014-14.83335129-26.5927248-28.56101901-26.26887502l-94.1135226-0.32903719 122.38996862-130.53215622C434.19827281 615.53851047 434.19827281 592.27395277 420.91450853 577.90896031z" p-id="1412"></path><path d="M823.39291932 197.44713862c-4.39457314-4.80290479-10.59810933-7.70347156-17.46416647-7.49893457l-12.42189376 0.2986528c-0.27938483 0-0.44390344 0.1044914-0.71736002 0.14969721L614.88191848 189.25011127c-13.77213194 0.3438586-25.13280707 12.61160933-25.48185381 27.45459458l-0.03483023 18.89444068c2.11280399 17.51900624 14.89337848 27.73842601 28.59584924 27.40494224l94.41217542 0.40314494L591.06896521 392.78405399c-13.33860334 14.30496526-13.33860334 37.52431717-0.03483022 51.89005048l0 0.00518742c13.30896052 14.37017914 34.82902896 14.37017914 48.15281087 0l122.48482605-130.59218339-0.78702121 105.34969748c-0.33422462 14.79852035 10.64331512 27.74361342 24.34578587 27.41531781l17.4989967 0c13.75212311-0.37868884 25.12243222-9.23823715 25.47147826-24.04120406l0.70772603-192.28294715c0-0.29865282-0.91152216-0.4787344-0.91152216-0.74774441l1.3406042-13.44309472C829.48158925 208.88710819 827.88234988 202.21595402 823.39291932 197.44713862z" p-id="1413"></path></svg>