<?xml version="1.0" standalone="no"?><!DOCTYPE svg PUBLIC "-//W3C//DTD SVG 1.1//EN" "http://www.w3.org/Graphics/SVG/1.1/DTD/svg11.dtd"><svg t="1557820986159" class="icon" style="" viewBox="0 0 1024 1024" version="1.1" xmlns="http://www.w3.org/2000/svg" p-id="2142" xmlns:xlink="http://www.w3.org/1999/xlink" width="200" height="200"><defs><style type="text/css"></style></defs><path d="M91.603228 454.107898h335.433717c15.443313 0 27.951493-12.5285 27.951493-27.951493V90.731719c0-15.42525-12.50818-27.95375-27.951493-27.95375H91.603228c-15.432024 0-27.95375 12.5285-27.953751 27.95375v335.424686c0 15.422992 12.521727 27.951493 27.953751 27.951493M119.556978 118.680954h279.528474v279.523958H119.556978V118.680954zM958.144658 90.731719c0-15.42525-12.503665-27.95375-27.953751-27.95375H594.75719c-15.42525 0-27.958266 12.5285-27.958266 27.95375v335.424686c0 15.422992 12.533016 27.951493 27.958266 27.951493h335.433717c15.450086 0 27.95375-12.5285 27.953751-27.951493V90.731719zM902.237157 398.204912H622.706425V118.680954H902.237157v279.523958zM92.097685 957.647943h335.433717c15.443313 0 27.951493-12.5285 27.951493-27.953751V594.271764c0-15.42525-12.50818-27.95375-27.951493-27.95375H92.097685c-15.432024 0-27.95375 12.5285-27.953751 27.95375v335.424686c0 15.42525 12.521727 27.951493 27.953751 27.951493m27.951493-335.424686h279.528473v279.523958H120.049178V622.223257zM958.639115 594.271764c0-15.42525-12.503665-27.95375-27.953751-27.95375H595.251647c-15.42525 0-27.958266 12.5285-27.958266 27.95375v335.424686c0 15.42525 12.533016 27.95375 27.958266 27.953751H930.685364c15.450086 0 27.95375-12.5285 27.953751-27.953751V594.271764z m-55.907501 307.475451H623.198624V622.223257h279.53299v279.523958z" fill="#040000" p-id="2143"></path></svg>