<?xml version="1.0" standalone="no"?><!DOCTYPE svg PUBLIC "-//W3C//DTD SVG 1.1//EN" "http://www.w3.org/Graphics/SVG/1.1/DTD/svg11.dtd"><svg t="1560246524621" class="icon" style="" viewBox="0 0 1024 1024" version="1.1" xmlns="http://www.w3.org/2000/svg" p-id="1542" xmlns:xlink="http://www.w3.org/1999/xlink" width="200" height="200"><defs><style type="text/css"></style></defs><path d="M367.16071342 164.38571167c-17.38071443 0-28.96785758 11.58714316-28.96785759 28.96785758v130.35535813c0 8.6903572-5.79357125 14.48392845-14.48392845 14.48392845H193.35356925c-17.38071443 0-28.96785758 11.58714316-28.96785758 28.96785759s11.58714316 28.96785758 28.96785758 28.96785692h130.35535813C364.26392746 396.12857034 396.12857034 364.26392746 396.12857034 323.70892738V193.35356925c0-17.38071443-11.58714316-28.96785758-28.96785692-28.96785758zM700.29107262 396.12857034H830.64643075c17.38071443 0 28.96785758-11.58714316 28.96785758-28.96785692s-11.58714316-28.96785758-28.96785758-28.96785759h-130.35535813c-8.6903572 0-14.48392845-5.79357125-14.48392845-14.48392845V193.35356925c0-17.38071443-11.58714316-28.96785758-28.96785759-28.96785758s-28.96785758 11.58714316-28.96785692 28.96785758v130.35535813C627.87142966 364.26392746 659.73607254 396.12857034 700.29107262 396.12857034zM323.70892738 627.87142966H193.35356925c-17.38071443 0-28.96785758 11.58714316-28.96785758 28.96785692s11.58714316 28.96785758 28.96785758 28.96785759h130.35535813c8.6903572 0 14.48392845 5.79357125 14.48392845 14.48392845V830.64643075c0 17.38071443 11.58714316 28.96785758 28.96785759 28.96785758s28.96785758-11.58714316 28.96785692-28.96785758v-130.35535813C396.12857034 659.73607254 364.26392746 627.87142966 323.70892738 627.87142966zM830.64643075 627.87142966h-130.35535813c-40.55500008 0-72.41964363 31.86464288-72.41964296 72.41964296V830.64643075c0 17.38071443 11.58714316 28.96785758 28.96785692 28.96785758s28.96785758-11.58714316 28.96785759-28.96785758v-130.35535813c0-8.6903572 5.79357125-14.48392845 14.48392845-14.48392845H830.64643075c17.38071443 0 28.96785758-11.58714316 28.96785758-28.96785759s-11.58714316-28.96785758-28.96785758-28.96785692z" p-id="1543"></path></svg>