<?xml version="1.0" standalone="no"?><!DOCTYPE svg PUBLIC "-//W3C//DTD SVG 1.1//EN" "http://www.w3.org/Graphics/SVG/1.1/DTD/svg11.dtd"><svg t="1561684186356" class="icon" viewBox="0 0 1071 1024" version="1.1" xmlns="http://www.w3.org/2000/svg" p-id="1424" xmlns:xlink="http://www.w3.org/1999/xlink" width="209.1796875" height="200"><defs><style type="text/css"></style></defs><path d="M799.64204518 476.04474397L763.68678991 476.04474397C743.82151086 476.04474397 727.73153387 459.95476775 727.73153387 440.08948871 727.73153387 420.22420965 743.82151086 404.13423267 763.68678991 404.13423267L799.64204518 404.13423267C839.35462542 404.13423267 871.55255647 371.93630164 871.55255647 332.22372137 871.55255647 292.51114191 839.35462542 260.31321009 799.64204518 260.31321009L763.68678991 260.31321009C743.82151086 260.31321009 727.73153387 244.20525603 727.73153387 224.35795482 727.73153387 204.49267578 743.82151086 188.40269879 763.68678991 188.40269879L799.64204518 188.40269879C879.06720491 188.40269879 943.46306853 252.79856165 943.46306853 332.22372137 943.46306853 411.64888111 879.06720491 476.04474397 799.64204518 476.04474397ZM673.79865022 907.5078125L386.15660504 907.5078125C366.291326 907.5078125 350.20134978 891.39985768 350.20134978 871.55255647L350.20134978 727.73153387C350.20134978 707.86625561 366.291326 691.77627863 386.15660504 691.77627863L673.79865022 691.77627863C693.66392926 691.77627863 709.75390625 707.86625561 709.75390625 727.73153387L709.75390625 871.55255647C709.75390625 891.39985768 693.66392926 907.5078125 673.79865022 907.5078125ZM601.88813892 763.68678991L458.06711634 763.68678991C438.20183806 763.68678991 422.11186108 779.77676691 422.11186108 799.64204518 422.11186108 819.50732422 438.20183806 835.59730121 458.06711634 835.59730121L601.88813892 835.59730121C621.75341797 835.59730121 637.84339496 819.50732422 637.84339496 799.64204518 637.84339496 779.77676691 621.75341797 763.68678991 601.88813892 763.68678991ZM673.79865022 619.86576733L386.15660504 619.86576733C366.291326 619.86576733 350.20134978 603.7578125 350.20134978 583.91051129L350.20134978 440.08948871C350.20134978 420.22420965 366.291326 404.13423267 386.15660504 404.13423267L673.79865022 404.13423267C693.66392926 404.13423267 709.75390625 420.22420965 709.75390625 440.08948871L709.75390625 583.91051129C709.75390625 603.7578125 693.66392926 619.86576733 673.79865022 619.86576733ZM601.88813892 476.04474397L458.06711634 476.04474397C438.20183806 476.04474397 422.11186108 492.13472096 422.11186108 512 422.11186108 531.86527904 438.20183806 547.95525603 458.06711634 547.95525603L601.88813892 547.95525603C621.75341797 547.95525603 637.84339496 531.86527904 637.84339496 512 637.84339496 492.13472096 621.75341797 476.04474397 601.88813892 476.04474397ZM673.79865022 332.22372137L386.15660504 332.22372137C366.291326 332.22372137 350.20134978 316.11576733 350.20134978 296.26846613L350.20134978 152.44744353C350.20134978 132.58216449 366.291326 116.4921875 386.15660504 116.4921875L673.79865022 116.4921875C693.66392926 116.4921875 709.75390625 132.58216449 709.75390625 152.44744353L709.75390625 296.26846613C709.75390625 316.11576733 693.66392926 332.22372137 673.79865022 332.22372137ZM601.88813892 188.40269879L458.06711634 188.40269879C438.20183806 188.40269879 422.11186108 204.49267578 422.11186108 224.35795482 422.11186108 244.20525603 438.20183806 260.31321009 458.06711634 260.31321009L601.88813892 260.31321009C621.75341797 260.31321009 637.84339496 244.20525603 637.84339496 224.35795482 637.84339496 204.49267578 621.75341797 188.40269879 601.88813892 188.40269879ZM260.31321009 727.73153387L296.26846613 727.73153387C316.13374439 727.73153387 332.22372137 743.82151086 332.22372137 763.68678991 332.22372137 783.53409113 316.13374439 799.64204518 296.26846613 799.64204518L260.31321009 799.64204518C180.88805036 799.64204518 116.4921875 735.24618231 116.4921875 655.82102258 116.4921875 576.39586286 180.88805036 512 260.31321009 512L296.26846613 512C316.13374439 512 332.22372137 528.08997699 332.22372137 547.95525603 332.22372137 567.82053431 316.13374439 583.91051129 296.26846613 583.91051129L260.31321009 583.91051129C220.60063061 583.91051129 188.40269879 616.10844311 188.40269879 655.82102258 188.40269879 695.53360285 220.60063061 727.73153387 260.31321009 727.73153387Z" p-id="1425"></path></svg>