<?xml version="1.0" standalone="no"?><!DOCTYPE svg PUBLIC "-//W3C//DTD SVG 1.1//EN" "http://www.w3.org/Graphics/SVG/1.1/DTD/svg11.dtd"><svg class="icon" width="16px" height="16.00px" viewBox="0 0 1024 1024" version="1.1" xmlns="http://www.w3.org/2000/svg"><path fill="#2c2c2c" d="M604.23 446.12c-6.74 0-13.49-2.57-18.63-7.72-10.29-10.29-10.29-26.98 0-37.26L901.84 84.9c10.29-10.29 26.97-10.29 37.26 0s10.29 26.98 0 37.26L622.86 438.4a26.284 26.284 0 0 1-18.63 7.72zM419.76 446.12c-6.74 0-13.49-2.57-18.63-7.72L84.9 122.16c-10.29-10.29-10.29-26.98 0-37.26 10.28-10.29 26.97-10.29 37.26 0l316.23 316.24c10.29 10.29 10.29 26.98 0 37.26a26.284 26.284 0 0 1-18.63 7.72zM920.47 946.82c-6.74 0-13.49-2.57-18.63-7.72L585.6 622.87c-10.29-10.29-10.29-26.98 0-37.26 10.29-10.29 26.97-10.29 37.26 0L939.1 901.84c10.29 10.29 10.29 26.97 0 37.26a26.259 26.259 0 0 1-18.63 7.72zM103.53 946.82c-6.74 0-13.49-2.57-18.63-7.72-10.29-10.29-10.29-26.97 0-37.26L401.13 585.6c10.28-10.29 26.97-10.29 37.26 0s10.29 26.97 0 37.26L122.16 939.1c-5.14 5.15-11.88 7.72-18.63 7.72z"  /><path fill="#2c2c2c" d="M90.36 380.24c-14.55 0-26.35-11.8-26.35-26.35V116.71C64 87.64 87.65 64 116.71 64h237.18c14.55 0 26.35 11.8 26.35 26.35s-11.8 26.35-26.35 26.35H116.71v237.18c0 14.56-11.8 26.36-26.35 26.36zM933.64 380.24c-14.55 0-26.35-11.8-26.35-26.35V116.71H670.11c-14.55 0-26.35-11.8-26.35-26.35S655.56 64 670.11 64h237.18C936.36 64 960 87.64 960 116.71v237.18c0 14.55-11.8 26.35-26.36 26.35zM353.89 960H116.71C87.65 960 64 936.36 64 907.29V670.12c0-14.55 11.8-26.35 26.35-26.35s26.35 11.8 26.35 26.35V907.3h237.18c14.55 0 26.35 11.8 26.35 26.35 0.01 14.55-11.79 26.35-26.34 26.35zM907.29 960H670.11c-14.55 0-26.35-11.8-26.35-26.35s11.8-26.35 26.35-26.35h237.18V670.12c0-14.55 11.8-26.35 26.35-26.35s26.35 11.8 26.35 26.35V907.3c0.01 29.06-23.63 52.7-52.7 52.7z"  /></svg>