<?xml version="1.0" standalone="no"?><!DOCTYPE svg PUBLIC "-//W3C//DTD SVG 1.1//EN" "http://www.w3.org/Graphics/SVG/1.1/DTD/svg11.dtd"><svg class="icon" width="16px" height="16.00px" viewBox="0 0 1024 1024" version="1.1" xmlns="http://www.w3.org/2000/svg"><path fill="#2c2c2c" d="M390.983 602.015h0.035l0.287 0.011 0.169 0.008 0.092 0.004 0.288 0.015 0.136 0.009c3.356 0.205 6.573 0.928 9.572 2.09l0.068 0.028 0.357 0.14 0.182 0.075a28.988 28.988 0 0 1 0.53 0.223l0.145 0.064c0.118 0.05 0.235 0.103 0.353 0.156 0.017 0.01 0.035 0.017 0.052 0.025a31.87 31.87 0 0 1 9.378 6.51l0.053 0.052a32.199 32.199 0 0 1 0.753 0.782l0.146 0.159 0.197 0.215 0.057 0.065a31.829 31.829 0 0 1 5.802 9.26 31.871 31.871 0 0 1 2.36 11.565l0.002 0.095 0.003 0.328V798c0 17.673-14.327 32-32 32-17.496 0-31.713-14.042-31.996-31.47L358 798v-86.746L166.627 902.627c-12.496 12.497-32.758 12.497-45.254 0C109 890.256 108.877 870.274 121 857.75l0.372-0.377L312.744 666H226c-17.496 0-31.713-14.042-31.996-31.47L194 634c0-17.496 14.042-31.713 31.47-31.996L226 602h164c0.328 0 0.655 0.005 0.983 0.015zM798 602c17.673 0 32 14.327 32 32 0 17.496-14.042 31.713-31.47 31.996L798 666h-86.745l191.372 191.373c12.497 12.496 12.497 32.758 0 45.254-12.371 12.372-32.353 12.496-44.877 0.372l-0.377-0.372L666 711.255V798c0 17.496-14.042 31.713-31.47 31.996L634 830c-17.496 0-31.713-14.042-31.996-31.47L602 798V634l0.003-0.434a31.863 31.863 0 0 1 2.321-11.56l0.071-0.175a28.988 28.988 0 0 1 0.223-0.53l0.064-0.145a31.87 31.87 0 0 1 6.69-9.783l0.063-0.063a32.194 32.194 0 0 1 0.347-0.34l-0.031 0.03a32.206 32.206 0 0 1 0.688-0.646 31.849 31.849 0 0 1 8.73-5.678l0.062-0.027a24.92 24.92 0 0 1 0.675-0.284 31.822 31.822 0 0 1 9.83-2.286l0.1-0.006a31.085 31.085 0 0 1 1.635-0.069h0.075l0.208-0.003L798 602zM166.25 121.001l0.377 0.372L358 312.745V226c0-17.496 14.042-31.713 31.47-31.996L390 194c17.496 0 31.713 14.042 31.996 31.47l0.004 0.53v164a31.865 31.865 0 0 1-2.32 11.987l-0.075 0.182a28.988 28.988 0 0 1-0.223 0.53l-0.064 0.145a31.87 31.87 0 0 1-6.69 9.783l-0.053 0.053-0.29 0.285 0.342-0.338a32.634 32.634 0 0 1-0.834 0.806l-0.159 0.146a31.853 31.853 0 0 1-8.803 5.745l-0.062 0.027a23.39 23.39 0 0 1-0.675 0.284 31.822 31.822 0 0 1-9.83 2.286l-0.1 0.006a31.085 31.085 0 0 1-1.635 0.069l-0.095 0.001-0.327 0.003H226c-17.673 0-32-14.327-32-32 0-17.496 14.042-31.713 31.47-31.996L226 358h86.745L121.373 166.627c-12.497-12.496-12.497-32.758 0-45.254C133.744 109 153.726 108.877 166.25 121z m736.377 0.372c12.372 12.371 12.496 32.353 0.372 44.877l-0.372 0.377L711.254 358H798c17.496 0 31.713 14.042 31.996 31.47l0.004 0.53c0 17.496-14.042 31.713-31.47 31.996L798 422H634l-0.491-0.004a32.203 32.203 0 0 1-0.814-0.022l-0.169-0.008-0.092-0.004a32.34 32.34 0 0 1-0.288-0.015l-0.136-0.009a31.822 31.822 0 0 1-9.572-2.09l-0.068-0.028a23.882 23.882 0 0 1-0.362-0.143l-0.177-0.072a28.988 28.988 0 0 1-0.53-0.223l-0.145-0.064a23.936 23.936 0 0 1-0.353-0.156l-0.072-0.034a31.87 31.87 0 0 1-9.358-6.5l-0.063-0.063a32.195 32.195 0 0 1-0.743-0.772l-0.146-0.159a24.45 24.45 0 0 1-0.222-0.243l-0.032-0.037 0.032 0.037a31.844 31.844 0 0 1-5.856-9.35 31.872 31.872 0 0 1-2.339-11.512v-0.075l-0.003-0.208L602 226c0-17.673 14.327-32 32-32 17.496 0 31.713 14.042 31.996 31.47l0.004 0.53v86.744l191.373-191.371c12.496-12.497 32.758-12.497 45.254 0z" /></svg>