<?xml version="1.0" standalone="no"?><!DOCTYPE svg PUBLIC "-//W3C//DTD SVG 1.1//EN" "http://www.w3.org/Graphics/SVG/1.1/DTD/svg11.dtd"><svg t="1608083713533" class="icon" viewBox="0 0 1024 1024" version="1.1" xmlns="http://www.w3.org/2000/svg" p-id="3151" width="16" height="16" xmlns:xlink="http://www.w3.org/1999/xlink"><defs><style type="text/css"></style></defs><path d="M948.443429 876.763429H73.362286a36.571429 36.571429 0 0 1-36.425143-36.425143V657.993143A109.714286 109.714286 0 0 1 146.285714 548.644571h233.325715c-7.241143-43.739429-29.110857-85.723429-60.123429-122.148571a254.829714 254.829714 0 0 1-63.780571-169.545143A253.805714 253.805714 0 0 1 334.116571 72.777143C385.170286 23.552 450.779429-0.146286 521.874286 1.682286c131.291429 5.485714 242.468571 118.491429 244.297143 249.782857 1.828571 65.609143-23.698286 129.462857-67.437715 178.688-31.012571 32.768-49.225143 72.923429-56.539428 118.491428h233.325714a109.714286 109.714286 0 0 1 109.421714 109.348572v182.345143a36.571429 36.571429 0 0 1-36.498285 36.425143zM109.860571 803.84h802.157715V657.993143a36.571429 36.571429 0 0 0-36.498286-36.425143H602.112a36.571429 36.571429 0 0 1-36.498286-36.498286c0-76.580571 27.355429-149.504 78.409143-204.141714a183.734857 183.734857 0 0 0 49.225143-127.634286C691.419429 158.500571 612.937143 78.262857 518.217143 74.605714a177.078857 177.078857 0 0 0-133.12 51.053715 180.736 180.736 0 0 0-56.466286 131.291428c0 43.739429 16.384 87.478857 45.568 120.32 52.882286 60.123429 81.993143 133.12 81.993143 207.798857a36.571429 36.571429 0 0 1-36.425143 36.498286H146.285714a36.571429 36.571429 0 0 0-36.425143 36.425143v145.846857zM948.443429 1022.610286H73.362286a36.571429 36.571429 0 0 1-36.425143-36.425143 36.571429 36.571429 0 0 1 36.425143-36.498286h875.081143a36.571429 36.571429 0 0 1 36.498285 36.498286 36.571429 36.571429 0 0 1-36.498285 36.425143z" p-id="3152"></path></svg>