<?xml version="1.0" standalone="no"?><!DOCTYPE svg PUBLIC "-//W3C//DTD SVG 1.1//EN" "http://www.w3.org/Graphics/SVG/1.1/DTD/svg11.dtd"><svg class="icon" width="32px" height="32.00px" viewBox="0 0 1024 1024" version="1.1" xmlns="http://www.w3.org/2000/svg"><path d="M928 640h-256c-17.066667 0-32 14.933333-32 32V768H288V416h128c17.066667 0 32-14.933333 32-32V128c0-17.066667-14.933333-32-32-32h-320C78.933333 96 64 110.933333 64 128v256c0 17.066667 14.933333 32 32 32h128v384c0 17.066667 14.933333 32 32 32h384v96c0 17.066667 14.933333 32 32 32h256c17.066667 0 32-14.933333 32-32v-256c0-17.066667-14.933333-32-32-32zM128 160h256v192H128v-192z"  /><path d="M608 320h128v128c0 17.066667 14.933333 32 32 32s32-14.933333 32-32v-128h128c17.066667 0 32-14.933333 32-32s-14.933333-32-32-32h-128V128c0-17.066667-14.933333-32-32-32s-32 14.933333-32 32v128h-128c-17.066667 0-32 14.933333-32 32s14.933333 32 32 32z"  /></svg>