<?xml version="1.0" standalone="no"?><!DOCTYPE svg PUBLIC "-//W3C//DTD SVG 1.1//EN" "http://www.w3.org/Graphics/SVG/1.1/DTD/svg11.dtd"><svg t="1612351765633" class="icon" viewBox="0 0 1092 1024" version="1.1" xmlns="http://www.w3.org/2000/svg" p-id="3256" width="68.25" height="64" xmlns:xlink="http://www.w3.org/1999/xlink"><defs><style type="text/css"></style></defs><path d="M1005.226667 502.237867a38.024533 38.024533 0 0 0-38.024534 38.024533v301.192533c0 27.989333-22.801067 50.7904-50.722133 50.7904H176.128a50.858667 50.858667 0 0 1-50.7904-50.7904V143.906133c0-27.989333 22.801067-50.7904 50.7904-50.7904h324.8128a38.024533 38.024533 0 0 0 0-76.049066H176.196267A126.976 126.976 0 0 0 49.3568 143.906133v697.5488a126.976 126.976 0 0 0 126.839467 126.839467h740.283733a126.976 126.976 0 0 0 126.839467-126.839467V540.2624a38.024533 38.024533 0 0 0-38.0928-38.024533zM235.52 690.176C353.621333 578.218667 472.951467 405.367467 683.895467 416.5632a27.511467 27.511467 0 0 1 26.487466 27.4432v73.250133a27.306667 27.306667 0 0 0 44.578134 21.2992l273.476266-221.184a27.306667 27.306667 0 0 0-0.136533-42.530133L756.1216 30.037333c-17.885867-14.404267-45.738667-1.706667-45.806933 21.230934v74.1376c0 13.9264-9.557333 24.029867-23.210667 27.170133C324.130133 235.3152 232.311467 660.821333 235.52 690.176z" p-id="3257"></path></svg>