<?xml version="1.0" standalone="no"?><!DOCTYPE svg PUBLIC "-//W3C//DTD SVG 1.1//EN" "http://www.w3.org/Graphics/SVG/1.1/DTD/svg11.dtd"><svg t="1547023448878" class="icon" style="" viewBox="0 0 1024 1024" version="1.1" xmlns="http://www.w3.org/2000/svg" p-id="1499" xmlns:xlink="http://www.w3.org/1999/xlink" width="200" height="200"><defs><style type="text/css"></style></defs><path d="M813.11328125 315.65234375L623.97265625 126.51171875c-5.2734375-5.2734375-12.39257813-8.26171875-19.86328125-8.26171875H230.75c-15.55664063 0-28.125 12.56835938-28.125 28.125v731.25c0 15.55664063 12.56835938 28.125 28.125 28.125h562.5c15.55664063 0 28.125-12.56835938 28.125-28.125V335.60351562c0-7.47070313-2.98828125-14.67773438-8.26171875-19.95117187zM756.51171875 348.5234375H591.1015625V183.11328125L756.51171875 348.5234375z m1.58203125 493.9453125H265.90625V181.53125h265.4296875v189.84375c0 20.390625 16.5234375 36.9140625 36.9140625 36.9140625h189.84375v434.1796875z" p-id="1500"></path></svg>