<?xml version="1.0" standalone="no"?><!DOCTYPE svg PUBLIC "-//W3C//DTD SVG 1.1//EN" "http://www.w3.org/Graphics/SVG/1.1/DTD/svg11.dtd"><svg t="1608874688532" class="icon" viewBox="0 0 1109 1024" version="1.1" xmlns="http://www.w3.org/2000/svg" p-id="4046" xmlns:xlink="http://www.w3.org/1999/xlink" width="17.328125" height="16"><defs><style type="text/css"></style></defs><path d="M494.93504 403.626667a190.293333 190.293333 0 1 0 380.586667 0 190.293333 190.293333 0 0 0-380.586667 0z" p-id="4047"></path><path d="M274.77504 932.778667V1024H86.529707A87.296 87.296 0 0 1 0.001707 936.021333V87.893333C0.001707 38.997333 39.084373 0 86.529707 0h936.277333C1070.252373 0 1109.33504 38.997333 1109.33504 87.978667v114.005333h-87.893333V91.221333H87.89504v841.557334h186.88zM170.668373 256h170.666667v85.333333H170.668373V256z m0 256h170.666667v85.333333H170.668373V512z m847.530667 376.234667l5.802667 50.176L341.33504 938.666667l5.717333-50.176C366.081707 723.029333 510.55104 597.333333 682.668373 597.333333c172.032 0 316.586667 125.525333 335.530667 290.901334zM682.668373 682.666667c-98.645333 0-183.125333 71.168-213.333333 170.666666l426.666667-0.170666C865.708373 753.664 781.313707 682.666667 682.668373 682.666667z" p-id="4048"></path></svg>