<?xml version="1.0" standalone="no"?><!DOCTYPE svg PUBLIC "-//W3C//DTD SVG 1.1//EN" "http://www.w3.org/Graphics/SVG/1.1/DTD/svg11.dtd"><svg t="1604374476113" class="icon" viewBox="0 0 1024 1024" version="1.1" xmlns="http://www.w3.org/2000/svg" p-id="1947" xmlns:xlink="http://www.w3.org/1999/xlink" width="200" height="200"><defs><style type="text/css"></style></defs><path d="M409.516546 653.385355c30.719437 30.634105 17.919671 12.202443 38.484627-8.19185l189.436527-189.436527c20.479625-20.394293 78.334564-45.567165 47.529796-76.115938-30.719437-30.634105-72.276008-38.911287-92.840965-18.516994l-211.79345 210.769469c-20.479625 20.479625-1.621304 50.943066 29.183465 81.49184z m-154.706498 253.862012l-133.885545-133.970877 285.008108-284.922776a210.257479 210.257479 0 0 0-208.721507 51.540388L48.648495 687.518062c-82.00383 81.662503-29.524792 161.61837 52.649701 243.195542 82.00383 81.662503 162.642352 133.885545 244.731513 52.223042l148.647942-147.62396c59.049584-58.708257 74.921293-143.357372 49.065767-216.828025l-288.848038 288.762706z m667.038438-799.046684C838.394016 25.258204 755.451537-27.050171 671.997067 55.97764l-151.293227 150.183914A210.940133 210.940133 0 0 0 470.187433 424.098892l297.381215-297.381215 133.970877 133.970877-296.69856 296.698561c74.238639 24.490218 159.314413 8.19185 218.449328-50.601739l151.207895-150.269245c83.539802-83.027811 30.975432-165.287636-52.56437-248.315448z" p-id="1948"></path></svg>