<?xml version="1.0" standalone="no"?><!DOCTYPE svg PUBLIC "-//W3C//DTD SVG 1.1//EN" "http://www.w3.org/Graphics/SVG/1.1/DTD/svg11.dtd"><svg t="1628145934555" class="icon" viewBox="0 0 1024 1024" version="1.1" xmlns="http://www.w3.org/2000/svg" p-id="9598" xmlns:xlink="http://www.w3.org/1999/xlink" width="200" height="200"><defs><style type="text/css"></style></defs><path d="M690.756992 390.109736h226.387741a37.444674 37.444674 0 0 0 25.856623-64.548229L619.002568 16.294875a37.444674 37.444674 0 0 0-62.667886 26.947497l-1.566698 210.251066a135.83295 135.83295 0 0 0 135.989008 136.616298z" p-id="9599" fill="#707070"></path><path d="M953.336356 459.979228H658.327585a177.03678 177.03678 0 0 1-177.664071-177.971596l1.096994-274.172004a42.770527 42.770527 0 0 1 0-7.833486H245.658939A180.953523 180.953523 0 0 0 64.235714 180.799607v662.399256a181.10958 181.10958 0 0 0 181.423225 180.795935h532.677037a180.953523 180.953523 0 0 0 181.423226-180.797465V459.520235zM722.874284 865.602327H300.806986a40.890184 40.890184 0 0 1 0-81.624311H722.875814a40.890184 40.890184 0 1 1 0 81.624311z m0-167.322952H300.806986a40.890184 40.890184 0 0 1 0-81.62431H722.875814a40.890184 40.890184 0 1 1 0 81.62431z" p-id="9600"></path></svg>