<?xml version="1.0" standalone="no"?><!DOCTYPE svg PUBLIC "-//W3C//DTD SVG 1.1//EN" "http://www.w3.org/Graphics/SVG/1.1/DTD/svg11.dtd"><svg t="1628146080680" class="icon" viewBox="0 0 1029 1024" version="1.1" xmlns="http://www.w3.org/2000/svg" p-id="14235" xmlns:xlink="http://www.w3.org/1999/xlink" width="200.9765625" height="200"><defs><style type="text/css"></style></defs><path d="M511.872004 0.028444a511.872004 511.872004 0 1 1 0 1023.687119A511.872004 511.872004 0 0 1 511.872004 0.028444zM417.951057 320.986639h204.680537c9.443293 0 16.49732-7.566012 16.497319-16.497319a16.383545 16.383545 0 0 0-16.497319-16.49732h-24.063332A79.47157 79.47157 0 0 0 521.201522 227.577678c-37.261187 0-68.833644 25.030416-77.36674 59.902336h-25.883725c-9.443293 0-14.620038 7.566012-14.620038 16.49732-0.511986 9.443293 5.119858 17.009305 14.620038 17.009305zM521.258409 260.572317c18.829699 0 34.87192 11.377462 42.437933 27.362796H479.275576a45.111636 45.111636 0 0 1 41.982833-27.305908z m205.135636 26.907697h-46.647594v57.569957H364.078776V287.480014h-48.069776A31.629344 31.629344 0 0 0 284.436543 319.166245v430.181829c0 17.464404 14.16494 31.572456 31.629344 31.572456h410.840143a31.629344 31.629344 0 0 0 31.572457-31.572456V319.109358a32.027555 32.027555 0 0 0-32.084442-31.629344z m-89.597512 369.369296H407.995778a16.383545 16.383545 0 0 1-16.49732-16.49732c0-9.443293 7.566012-16.49732 16.49732-16.497319h228.800755c9.443293 0 16.49732 7.509125 16.49732 16.497319 0 8.931307-7.509125 16.49732-16.49732 16.49732z m0-102.852254H407.995778a16.383545 16.383545 0 0 1-16.49732-16.49732c0-9.443293 7.566012-16.49732 16.49732-16.497319h228.800755c9.443293 0 16.49732 7.509125 16.49732 16.497319 0 8.931307-7.509125 16.49732-16.49732 16.49732z m0-105.639733H408.507764a16.383545 16.383545 0 0 1-16.49732-16.497319c0-8.988195 7.509125-16.49732 16.49732-16.49732h228.288769c9.443293 0 16.49732 7.509125 16.49732 16.49732 0 8.931307-7.509125 16.49732-16.49732 16.497319z" p-id="14236"></path></svg>