<?xml version="1.0" standalone="no"?><!DOCTYPE svg PUBLIC "-//W3C//DTD SVG 1.1//EN" "http://www.w3.org/Graphics/SVG/1.1/DTD/svg11.dtd"><svg t="1628146239217" class="icon" viewBox="0 0 1024 1024" version="1.1" xmlns="http://www.w3.org/2000/svg" p-id="17405" xmlns:xlink="http://www.w3.org/1999/xlink" width="200" height="200"><defs><style type="text/css"></style></defs><path d="M864.074 567.283c-10.07 9.455-25.887 8.939-35.322-1.16l-63.889-68.4c-31.158 24.566-70.355 39.339-113.061 39.339-101.209 0-183.254-82.279-183.254-183.779 0-101.498 82.045-183.789 183.254-183.789 101.207 0 183.254 82.291 183.254 183.789 0 40.56-13.258 77.922-35.449 108.324l65.621 70.248c9.434 10.1 8.918 25.963-1.154 35.428zM651.803 219.622c-73.605 0-133.277 59.839-133.277 133.662 0 73.813 59.672 133.653 133.277 133.653s133.275-59.84 133.275-133.653c0-73.823-59.67-133.662-133.275-133.662zM152.021 787.669V570.473H435.23v284.032H218.658c-36.803 0-66.637-29.928-66.637-66.836z m0-501.221c0-36.907 29.835-66.827 66.638-66.827H435.23v284.024H152.021V286.448z m633.057 501.221c0 36.908-29.836 66.836-66.637 66.836H501.867V570.473h283.211v217.196z" p-id="17406"></path></svg>