<?xml version="1.0" standalone="no"?><!DOCTYPE svg PUBLIC "-//W3C//DTD SVG 1.1//EN" "http://www.w3.org/Graphics/SVG/1.1/DTD/svg11.dtd"><svg t="1605602063953" class="icon" viewBox="0 0 1024 1024" version="1.1" xmlns="http://www.w3.org/2000/svg" p-id="36928" xmlns:xlink="http://www.w3.org/1999/xlink" width="16" height="16"><defs><style type="text/css"></style></defs><path d="M873.192727 248.552727h-171.985454V175.941818A107.054545 107.054545 0 0 0 594.385455 69.818182h-168.727273a106.821818 106.821818 0 0 0-106.589091 106.821818v72.610909H150.807273A101.236364 101.236364 0 0 0 49.803636 349.090909v504.785455A101.236364 101.236364 0 0 0 150.807273 954.181818h721.454545a101.236364 101.236364 0 0 0 101.003637-101.003636V349.090909a101.236364 101.236364 0 0 0-100.072728-100.538182zM388.887273 175.941818A37.003636 37.003636 0 0 1 425.658182 139.636364h168.727273a37.003636 37.003636 0 0 1 37.003636 37.003636v72.610909H388.887273zM119.621818 349.090909a31.185455 31.185455 0 0 1 31.185455-31.185454h721.454545A31.418182 31.418182 0 0 1 904.378182 349.090909v144.290909a31.418182 31.418182 0 0 1-31.185455 31.185455h-721.454545a31.185455 31.185455 0 0 1-31.185455-31.185455z m753.570909 535.272727h-721.454545a31.185455 31.185455 0 0 1-31.185455-31.185454V589.265455a99.84 99.84 0 0 0 31.185455 5.585454h721.454545a99.84 99.84 0 0 0 31.185455-5.585454v264.610909A31.418182 31.418182 0 0 1 873.192727 884.363636z" p-id="36929"></path></svg>