<?xml version="1.0" standalone="no"?><!DOCTYPE svg PUBLIC "-//W3C//DTD SVG 1.1//EN" "http://www.w3.org/Graphics/SVG/1.1/DTD/svg11.dtd"><svg t="1608083372484" class="icon" viewBox="0 0 1024 1024" version="1.1" xmlns="http://www.w3.org/2000/svg" p-id="2413" width="16" height="16" xmlns:xlink="http://www.w3.org/1999/xlink"><defs><style type="text/css"></style></defs><path d="M638.414493 1023.449462a40.031951 40.031951 0 0 1-33.976037-18.875576L381.470714 644.364977a40.031951 40.031951 0 0 1 5.34808-48.919201l541.886329-557.222735a40.110599 40.110599 0 0 1 66.536405 40.97573L676.244293 996.630415a40.031951 40.031951 0 0 1-37.751152 26.819047zM465.938917 628.949923l162.329954 262.055914 232.090937-667.723502-394.420891 405.667588z m-66.064516 19.111521a39.953303 39.953303 0 0 1-20.841782-5.898618L19.610192 421.711828a40.031951 40.031951 0 0 1 7.471582-71.727189l912.319508-325.91828a40.031951 40.031951 0 0 1 41.683564 66.064517L428.030468 636.500154a40.110599 40.110599 0 0 1-28.156067 11.56129zM132.785 397.173579L394.211728 557.615975l402.207066-397.409523L132.706351 397.173579z" p-id="2414"></path></svg>