<?xml version="1.0" standalone="no"?><!DOCTYPE svg PUBLIC "-//W3C//DTD SVG 1.1//EN" "http://www.w3.org/Graphics/SVG/1.1/DTD/svg11.dtd"><svg t="1604374470441" class="icon" viewBox="0 0 1024 1024" version="1.1" xmlns="http://www.w3.org/2000/svg" p-id="1822" xmlns:xlink="http://www.w3.org/1999/xlink" width="200" height="200"><defs><style type="text/css"></style></defs><path d="M906.24 565.76H565.76v340.48c0 19.797333-24.064 53.76-53.76 53.76-29.696 0-53.76-33.962667-53.76-53.76V565.76H117.76c-19.797333 0-53.76-24.064-53.76-53.76 0-29.696 33.962667-53.76 53.76-53.76h340.48V117.76c0-19.797333 24.064-53.76 53.76-53.76 29.696 0 53.76 33.962667 53.76 53.76v340.48h340.48c19.797333 0 53.76 24.064 53.76 53.76 0 29.696-33.962667 53.76-53.76 53.76z" p-id="1823"></path></svg>