<?xml version="1.0" standalone="no"?><!DOCTYPE svg PUBLIC "-//W3C//DTD SVG 1.1//EN" "http://www.w3.org/Graphics/SVG/1.1/DTD/svg11.dtd"><svg t="1608868448388" class="icon" viewBox="0 0 1024 1024" version="1.1" xmlns="http://www.w3.org/2000/svg" p-id="3581" xmlns:xlink="http://www.w3.org/1999/xlink" width="16" height="16"><defs><style type="text/css"></style></defs><path d="M341.333333 128V682.666667h554.666667V128H341.333333z m0-85.333333h554.666667c46.933333 0 85.333333 38.4 85.333333 85.333333V682.666667c0 46.933333-38.4 85.333333-85.333333 85.333333H341.333333c-46.933333 0-85.333333-38.4-85.333333-85.333333V128c0-46.933333 38.4-85.333333 85.333333-85.333333z" p-id="3582"></path><path d="M682.666667 853.333333c25.6 0 42.666667 17.066667 42.666666 42.666667 0 46.933333-38.4 85.333333-85.333333 85.333333h-512c-46.933333 0-85.333333-38.4-85.333333-85.333333v-512c0-46.933333 38.4-85.333333 85.333333-85.333333 25.6 0 42.666667 17.066667 42.666667 42.666666s-17.066667 42.666667-42.666667 42.666667v512h512c0-21.333333 17.066667-42.666667 42.666667-42.666667z" p-id="3583"></path></svg>