<?xml version="1.0" standalone="no"?><!DOCTYPE svg PUBLIC "-//W3C//DTD SVG 1.1//EN" "http://www.w3.org/Graphics/SVG/1.1/DTD/svg11.dtd"><svg t="1608703254203" class="icon" viewBox="0 0 1097 1024" version="1.1" xmlns="http://www.w3.org/2000/svg" p-id="7117" xmlns:xlink="http://www.w3.org/1999/xlink" width="17.140625" height="16"><defs><style type="text/css"></style></defs><path d="M514.267429 891.465143a34.304 34.304 0 1 1 0 68.534857H171.446857a34.304 34.304 0 1 1 0-68.608H514.194286zM925.696 68.608c53.028571 0 97.28 40.228571 102.4 92.891429l0.512 9.947428v340.699429a34.304 34.304 0 0 1-68.022857 6.217143L960 512V171.446857a34.304 34.304 0 0 0-28.086857-33.718857l-6.217143-0.585143H171.446857a34.304 34.304 0 0 0-33.718857 28.086857l-0.585143 6.217143V719.725714l0.585143 6.144c2.633143 14.043429 13.677714 24.941714 27.794286 27.428572l6.144 0.512 273.846857-1.755429a34.304 34.304 0 0 1 6.582857 67.949714l-6.144 0.658286-273.92 1.682286A102.838857 102.838857 0 0 1 69.12 729.965714l-0.512-9.874285v-548.571429c0-53.028571 40.228571-97.28 92.891429-102.4l9.947428-0.438857h754.249143z" p-id="7118"></path><path d="M811.227429 488.009143l7.533714 3.510857 187.977143 106.788571a53.979429 53.979429 0 0 1 26.770285 38.546286l0.658286 8.265143v213.577143a53.686857 53.686857 0 0 1-20.553143 42.130286l-6.875428 4.681142-187.977143 106.788572a55.588571 55.588571 0 0 1-47.323429 3.510857l-7.533714-3.584-187.904-106.788571a53.979429 53.979429 0 0 1-26.770286-38.546286L548.571429 858.697143V644.973714c0-16.384 7.533714-31.890286 20.48-42.130285l6.948571-4.608 187.977143-106.788572a55.588571 55.588571 0 0 1 47.250286-3.510857z" p-id="7119"></path><path d="M791.405714 564.955429L626.834286 658.432v186.88l164.571428 93.403429 164.352-93.330286V658.432L791.405714 565.028571z" p-id="7120"></path><path d="M783.652571 677.156571c43.300571 0 78.409143 34.523429 78.409143 77.165715 0 42.569143-35.108571 77.092571-78.409143 77.092571a77.750857 77.750857 0 0 1-78.336-77.165714c0-42.569143 35.108571-77.092571 78.336-77.092572z" p-id="7121"></path></svg>